<?xml version="1.0" encoding="utf-8"?>
<!-- Generator: Adobe Illustrator 23.0.1, SVG Export Plug-In . SVG Version: 6.00 Build 0)  -->
<svg version="1.1" id="Layer_1" xmlns="http://www.w3.org/2000/svg" xmlns:xlink="http://www.w3.org/1999/xlink" x="0px" y="0px"
	 viewBox="0 0 360 360" style="enable-background:new 0 0 360 360;" xml:space="preserve">
<style type="text/css">
	.st0{fill:#58595B;}
</style>
<g>
	<path class="st0" d="M59,301h9.7v9.7H59V301z"/>
	<path class="st0" d="M78.4,301h9.7v9.7h-9.7V301z"/>
	<path class="st0" d="M97.7,301h9.7v9.7h-9.7V301z"/>
	<path class="st0" d="M262.3,301H301v9.7h-38.7V301z"/>
	<path class="st0" d="M320.3,281.6V121.9c0-13.3-10.9-24.2-24.2-24.2h-14.5c0-37.4-30.4-67.7-67.7-67.7s-67.7,30.4-67.7,67.7H63.9
		c-13.3,0-24.2,10.9-24.2,24.2v159.7H30v24.2c0,13.3,10.9,24.2,24.2,24.2h251.6c13.3,0,24.2-10.9,24.2-24.2v-24.2H320.3z
		 M296.1,107.4c8,0,14.5,6.5,14.5,14.5v159.7H301V126.8c0-5.3-4.3-9.7-9.7-9.7h-12.5c0.9-3.1,1.6-6.4,2.1-9.7H296.1z M158.6,80
		l51.4,21.4l17.6,52.7c-4.4,1.1-9,1.7-13.7,1.7c-32,0-58.1-26-58.1-58.1C155.8,91.5,156.8,85.6,158.6,80z M236.8,151.1l-17.3-52
		l38.8-38.8c8.6,10.1,13.8,23.2,13.8,37.5C271.9,121.6,257.4,142.2,236.8,151.1z M213.9,39.7c14.3,0,27.3,5.2,37.5,13.8L212.7,92
		l-50.4-21C172,52.4,191.5,39.7,213.9,39.7z M49.4,121.9c0-8,6.5-14.5,14.5-14.5h83c0.5,3.3,1.1,6.5,2.1,9.7H68.7
		c-5.3,0-9.7,4.3-9.7,9.7v154.8h-9.7V121.9z M320.3,305.8c0,8-6.5,14.5-14.5,14.5H54.2c-8,0-14.5-6.5-14.5-14.5v-14.5h99.7
		c7,6.3,15.9,9.7,25.3,9.7h30.7c9.4,0,18.3-3.4,25.3-9.7h61v-9.7h-64.9l-1.4,1.4c-5.3,5.3-12.4,8.3-19.9,8.3h-30.7
		c-7.5,0-14.6-2.9-19.9-8.3l-1.4-1.4H68.7V126.8h84c10.9,22.8,34.2,38.7,61.1,38.7s50.2-15.9,61.1-38.7h16.3v164.5h29V305.8z"/>
	<path class="st0" d="M267.1,233.2c-3,0-5.7,0.9-8,2.4L242.2,223c0.4-1.4,0.7-2.8,0.7-4.3c0-8-6.5-14.5-14.5-14.5
		c-8,0-14.5,6.5-14.5,14.5c0,1.7,0.3,3.2,0.9,4.7l-27.1,21.7c-2.2-1.4-4.8-2.2-7.6-2.2c-3.3,0-6.2,1.1-8.7,2.9l-20.9-13.9
		c0.3-1.1,0.5-2.3,0.5-3.5c0-8-6.5-14.5-14.5-14.5s-14.5,6.5-14.5,14.5c0,1.2,0.2,2.4,0.5,3.5l-20.9,13.9c-2.4-1.8-5.4-2.9-8.7-2.9
		c-8,0-14.5,6.5-14.5,14.5c0,8,6.5,14.5,14.5,14.5s14.5-6.5,14.5-14.5c0-1.2-0.2-2.4-0.5-3.5l20.9-13.9c2.4,1.8,5.4,2.9,8.7,2.9
		s6.2-1.1,8.7-2.9l20.9,13.9c-0.3,1.1-0.5,2.3-0.5,3.5c0,8,6.5,14.5,14.5,14.5s14.5-6.5,14.5-14.5c0-1.7-0.3-3.2-0.9-4.7l27.1-21.7
		c2.2,1.4,4.8,2.2,7.6,2.2c3,0,5.7-0.9,8-2.4l16.9,12.7c-0.4,1.4-0.7,2.8-0.7,4.3c0,8,6.5,14.5,14.5,14.5s14.5-6.5,14.5-14.5
		C281.6,239.7,275.1,233.2,267.1,233.2z M92.9,262.3c-2.7,0-4.8-2.2-4.8-4.8c0-2.7,2.2-4.8,4.8-4.8c2.7,0,4.8,2.2,4.8,4.8
		C97.7,260.1,95.6,262.3,92.9,262.3z M136.5,233.2c-2.7,0-4.8-2.2-4.8-4.8s2.2-4.8,4.8-4.8s4.8,2.2,4.8,4.8S139.1,233.2,136.5,233.2
		z M180,262.3c-2.7,0-4.8-2.2-4.8-4.8c0-2.7,2.2-4.8,4.8-4.8s4.8,2.2,4.8,4.8C184.8,260.1,182.7,262.3,180,262.3z M228.4,223.5
		c-2.7,0-4.8-2.2-4.8-4.8s2.2-4.8,4.8-4.8s4.8,2.2,4.8,4.8S231.1,223.5,228.4,223.5z M267.1,252.6c-2.7,0-4.8-2.2-4.8-4.8
		c0-2.7,2.2-4.8,4.8-4.8s4.8,2.2,4.8,4.8C271.9,250.4,269.8,252.6,267.1,252.6z"/>
	<path class="st0" d="M155.8,136.5H78.4v67.7h77.4V136.5z M146.1,194.5H88.1v-48.4h58.1V194.5z"/>
	<path class="st0" d="M97.7,155.8h38.7v9.7H97.7V155.8z"/>
	<path class="st0" d="M97.7,175.2h38.7v9.7H97.7V175.2z"/>
	<path class="st0" d="M165.5,184.8h9.7v9.7h-9.7V184.8z"/>
	<path class="st0" d="M184.8,184.8h96.8v9.7h-96.8V184.8z"/>
</g>
</svg>
